<svg width="108" height="108" viewBox="0 0 108 108" fill="none" xmlns="http://www.w3.org/2000/svg">
  <defs>
    <linearGradient id="bgGradient" x1="92" y1="-12" x2="16" y2="120" gradientUnits="userSpaceOnUse">
      <stop stop-color="#0F172A" />
      <stop offset="1" stop-color="#1D4ED8" />
    </linearGradient>
    <linearGradient id="overlayGradient" x1="14" y1="14" x2="74" y2="78" gradientUnits="userSpaceOnUse">
      <stop stop-color="#38BDF8" stop-opacity="0.32" />
      <stop offset="1" stop-color="#38BDF8" stop-opacity="0" />
    </linearGradient>
  </defs>
  <rect width="108" height="108" fill="url(#bgGradient)" />
  <path d="M0 70L102 24C105.3 22.5 108 23.7 108 27V108H0V70Z" fill="#1E293B" fill-opacity="0.35" />
  <path d="M0 44V0H108L56 44C47.2 52 36.8 57.6 25.2 60.3L0 44Z" fill="url(#overlayGradient)" />
  <circle cx="54" cy="55" r="25" fill="#F8FAFC" fill-opacity="0.92" />
  <circle cx="54" cy="55" r="19" fill="#BFDBFE" fill-opacity="0.9" />
  <path d="M54 38C44.0589 38 36 46.0589 36 56C36 65.9411 44.0589 74 54 74C63.9411 74 72 65.9411 72 56C72 46.0589 63.9411 38 54 38ZM54 42C61.732 42 68 48.268 68 56C68 63.732 61.732 70 54 70C46.268 70 40 63.732 40 56C40 48.268 46.268 42 54 42Z" fill="#1E3A8A" fill-opacity="0.12" />
  <rect x="44" y="60" width="7" height="16" fill="#1E3A8A" />
  <rect x="54" y="54" width="7" height="22" fill="#1D4ED8" />
  <rect x="64" y="48" width="7" height="28" fill="#38BDF8" />
  <path d="M40 62L52 50L62 56L74 44" stroke="#0EA5E9" stroke-width="5" stroke-linecap="round" stroke-linejoin="round" />
  <circle cx="48" cy="54" r="4" fill="#38BDF8" />
</svg>
